<svg id="svg" version="1.1" xmlns="http://www.w3.org/2000/svg" xmlns:xlink="http://www.w3.org/1999/xlink" width="400" height="400" viewBox="0, 0, 400,400"><g id="svgg"><path id="path0" d="M251.162 92.664 C 250.591 93.289,249.123 95.060,247.900 96.600 C 246.677 98.140,245.164 99.948,244.538 100.618 C 240.874 104.541,238.400 108.516,238.400 110.482 C 238.400 113.191,237.528 113.562,233.307 112.650 C 223.513 110.533,222.921 110.640,220.653 114.928 C 220.092 115.989,219.131 117.437,218.517 118.147 C 217.903 118.857,217.040 119.939,216.600 120.551 C 216.160 121.164,215.530 121.986,215.200 122.379 C 214.870 122.772,214.150 123.689,213.600 124.417 C 212.062 126.453,208.346 131.286,207.947 131.769 C 207.751 132.006,206.489 133.640,205.142 135.400 C 203.795 137.160,201.845 139.500,200.809 140.600 C 199.000 142.519,192.320 150.955,188.900 155.639 C 188.001 156.870,187.025 158.130,186.732 158.439 C 186.440 158.748,185.672 159.720,185.027 160.600 C 181.610 165.263,181.203 165.370,176.064 162.971 C 174.450 162.217,173.062 161.600,172.980 161.600 C 172.898 161.600,171.519 160.984,169.915 160.232 C 162.498 156.752,162.759 156.740,156.734 160.812 C 150.873 164.773,150.613 164.831,146.867 163.019 C 141.581 160.461,139.403 161.874,138.573 168.400 C 138.419 169.610,138.154 170.871,137.985 171.202 C 137.815 171.534,137.388 173.473,137.037 175.512 C 136.245 180.098,136.556 181.067,139.648 183.641 C 141.719 185.365,142.900 186.192,146.800 188.650 C 149.873 190.586,150.166 190.761,151.400 191.400 C 152.060 191.743,153.680 192.729,155.000 193.593 C 157.065 194.943,159.916 196.736,162.334 198.204 C 164.433 199.478,168.973 202.289,171.400 203.816 C 175.702 206.523,178.294 206.304,181.400 202.969 C 181.840 202.497,183.280 201.158,184.600 199.993 C 185.920 198.828,188.510 196.508,190.356 194.838 C 196.760 189.041,197.730 188.761,202.483 191.343 C 206.639 193.600,207.217 193.471,211.666 189.297 C 213.720 187.370,215.824 185.404,216.342 184.928 C 218.548 182.900,219.018 182.938,224.522 185.578 C 235.031 190.619,235.524 190.609,239.160 185.263 C 240.006 184.018,241.504 182.190,242.488 181.200 C 243.472 180.210,246.497 176.520,249.210 173.000 C 255.756 164.507,257.017 162.886,258.501 161.052 C 259.191 160.200,260.185 158.695,260.711 157.707 C 261.819 155.625,270.815 143.942,273.575 141.000 C 275.596 138.846,278.919 134.680,281.313 131.299 C 284.443 126.877,282.854 124.030,276.600 122.854 C 266.885 121.027,266.777 120.208,274.958 110.359 C 275.251 110.007,276.870 107.986,278.555 105.870 C 280.240 103.753,282.069 101.535,282.619 100.942 C 285.001 98.372,283.935 96.233,280.052 95.787 C 278.813 95.645,277.140 95.362,276.334 95.158 C 275.527 94.954,272.827 94.518,270.334 94.188 C 267.840 93.858,263.640 93.220,261.000 92.769 C 252.706 91.355,252.361 91.351,251.162 92.664 M149.786 199.223 C 149.468 199.737,149.779 201.120,150.834 203.894 C 151.272 205.045,152.007 207.025,152.469 208.294 C 152.930 209.562,153.486 210.992,153.706 211.471 C 153.925 211.950,154.001 212.760,153.875 213.271 C 153.749 213.782,153.396 215.280,153.090 216.600 C 152.783 217.920,152.329 219.630,152.080 220.400 C 149.214 229.260,149.313 229.716,155.000 233.840 C 155.880 234.478,156.854 235.241,157.164 235.535 C 161.278 239.441,164.053 240.212,166.000 237.990 C 166.110 237.865,167.640 236.521,169.400 235.004 C 171.160 233.486,173.320 231.546,174.200 230.692 C 176.628 228.336,178.495 227.690,184.297 227.201 C 193.484 226.426,193.621 225.003,184.906 220.881 C 183.619 220.272,181.494 218.966,180.183 217.977 C 178.872 216.989,177.080 215.711,176.200 215.138 C 170.763 211.596,168.553 210.176,168.200 210.000 C 167.582 209.691,158.973 204.087,158.200 203.491 C 154.386 200.549,150.260 198.455,149.786 199.223 M140.600 238.010 C 138.840 239.085,137.220 239.978,137.000 239.996 C 135.882 240.082,134.655 241.938,132.995 246.052 C 131.987 248.553,130.900 251.167,130.581 251.860 C 130.261 252.554,130.000 253.398,130.000 253.737 C 130.000 254.076,129.833 254.456,129.629 254.582 C 129.425 254.708,129.049 255.484,128.794 256.306 C 128.538 257.128,127.817 258.880,127.190 260.200 C 126.564 261.520,125.579 263.770,125.001 265.200 C 124.423 266.630,123.691 268.367,123.375 269.060 C 123.059 269.754,122.800 270.446,122.800 270.600 C 122.800 270.754,122.556 271.446,122.259 272.140 C 121.610 273.650,120.352 276.728,119.372 279.200 C 118.979 280.190,118.343 281.726,117.958 282.614 C 117.573 283.502,117.135 284.718,116.985 285.318 C 116.834 285.917,116.551 286.506,116.356 286.627 C 115.952 286.877,115.868 289.335,116.251 289.717 C 116.389 289.855,117.010 289.705,117.631 289.384 C 120.773 287.759,121.275 288.596,119.198 292.000 C 118.325 293.430,117.411 295.095,117.166 295.700 C 116.922 296.305,116.559 296.800,116.361 296.800 C 116.162 296.800,116.000 296.983,116.000 297.206 C 116.000 297.534,113.526 301.221,112.112 303.000 C 111.937 303.220,111.572 303.850,111.300 304.400 C 111.028 304.950,110.628 305.670,110.411 306.000 C 108.413 309.032,107.408 311.200,108.000 311.200 C 108.220 311.200,108.400 310.930,108.400 310.600 C 108.400 310.270,108.634 310.000,108.920 310.000 C 109.831 310.000,136.789 283.779,140.174 279.600 C 141.332 278.170,145.894 273.345,150.311 268.877 L 158.341 260.754 158.559 258.277 C 159.751 244.708,160.440 246.672,152.317 240.483 C 145.306 235.141,145.301 235.140,140.600 238.010 " stroke="none" fill="#8253e1" fill-rule="evenodd"></path><path id="path1" d="M0.000 200.000 L 0.000 400.000 200.000 400.000 L 400.000 400.000 400.000 200.000 L 400.000 0.000 200.000 0.000 L 0.000 0.000 0.000 200.000 M261.000 92.769 C 263.640 93.220,267.840 93.858,270.334 94.188 C 272.827 94.518,275.527 94.954,276.334 95.158 C 277.140 95.362,278.813 95.645,280.052 95.787 C 283.935 96.233,285.001 98.372,282.619 100.942 C 282.069 101.535,280.240 103.753,278.555 105.870 C 276.870 107.986,275.251 110.007,274.958 110.359 C 266.777 120.208,266.885 121.027,276.600 122.854 C 282.854 124.030,284.443 126.877,281.313 131.299 C 278.919 134.680,275.596 138.846,273.575 141.000 C 270.815 143.942,261.819 155.625,260.711 157.707 C 260.185 158.695,259.191 160.200,258.501 161.052 C 257.017 162.886,255.756 164.507,249.210 173.000 C 246.497 176.520,243.472 180.210,242.488 181.200 C 241.504 182.190,240.006 184.018,239.160 185.263 C 235.524 190.609,235.031 190.619,224.522 185.578 C 219.018 182.938,218.548 182.900,216.342 184.928 C 215.824 185.404,213.720 187.370,211.666 189.297 C 207.217 193.471,206.639 193.600,202.483 191.343 C 197.730 188.761,196.760 189.041,190.356 194.838 C 188.510 196.508,185.920 198.828,184.600 199.993 C 183.280 201.158,181.840 202.497,181.400 202.969 C 178.294 206.304,175.702 206.523,171.400 203.816 C 168.973 202.289,164.433 199.478,162.334 198.204 C 159.916 196.736,157.065 194.943,155.000 193.593 C 153.680 192.729,152.060 191.743,151.400 191.400 C 150.740 191.058,149.840 190.555,149.400 190.281 C 136.720 182.396,135.997 181.533,137.037 175.512 C 137.388 173.473,137.815 171.534,137.985 171.202 C 138.154 170.871,138.419 169.610,138.573 168.400 C 139.403 161.874,141.581 160.461,146.867 163.019 C 150.613 164.831,150.873 164.773,156.734 160.812 C 162.759 156.740,162.498 156.752,169.915 160.232 C 171.519 160.984,172.898 161.600,172.980 161.600 C 173.062 161.600,174.450 162.217,176.064 162.971 C 181.203 165.370,181.610 165.263,185.027 160.600 C 185.672 159.720,186.440 158.748,186.732 158.439 C 187.025 158.130,188.001 156.870,188.900 155.639 C 192.320 150.955,199.000 142.519,200.809 140.600 C 201.845 139.500,203.795 137.160,205.142 135.400 C 206.489 133.640,207.751 132.006,207.947 131.769 C 208.346 131.286,212.062 126.453,213.600 124.417 C 214.150 123.689,214.870 122.772,215.200 122.379 C 215.530 121.986,216.160 121.164,216.600 120.551 C 217.040 119.939,217.903 118.857,218.517 118.147 C 219.131 117.437,220.092 115.989,220.653 114.928 C 222.921 110.640,223.513 110.533,233.307 112.650 C 237.528 113.562,238.400 113.191,238.400 110.482 C 238.400 108.516,240.874 104.541,244.538 100.618 C 245.164 99.948,246.677 98.140,247.900 96.600 C 252.530 90.770,251.333 91.121,261.000 92.769 M154.400 200.991 C 156.270 202.197,157.980 203.322,158.200 203.491 C 158.973 204.087,167.582 209.691,168.200 210.000 C 168.553 210.176,170.763 211.596,176.200 215.138 C 177.080 215.711,178.872 216.989,180.183 217.977 C 181.494 218.966,183.619 220.272,184.906 220.881 C 193.621 225.003,193.484 226.426,184.297 227.201 C 178.495 227.690,176.628 228.336,174.200 230.692 C 173.320 231.546,171.160 233.486,169.400 235.004 C 167.640 236.521,166.110 237.865,166.000 237.990 C 164.053 240.212,161.278 239.441,157.164 235.535 C 156.854 235.241,155.880 234.478,155.000 233.840 C 149.313 229.716,149.214 229.260,152.080 220.400 C 152.329 219.630,152.783 217.920,153.090 216.600 C 153.396 215.280,153.749 213.782,153.875 213.271 C 154.001 212.760,153.925 211.950,153.706 211.471 C 153.486 210.992,152.930 209.562,152.469 208.294 C 152.007 207.025,151.272 205.045,150.834 203.894 C 148.628 198.094,149.193 197.634,154.400 200.991 M152.317 240.483 C 160.440 246.672,159.751 244.708,158.559 258.277 L 158.341 260.754 150.311 268.877 C 145.894 273.345,141.332 278.170,140.174 279.600 C 136.789 283.779,109.831 310.000,108.920 310.000 C 108.634 310.000,108.400 310.270,108.400 310.600 C 108.400 310.930,108.220 311.200,108.000 311.200 C 107.408 311.200,108.413 309.032,110.411 306.000 C 110.628 305.670,111.028 304.950,111.300 304.400 C 111.572 303.850,111.937 303.220,112.112 303.000 C 113.526 301.221,116.000 297.534,116.000 297.206 C 116.000 296.983,116.162 296.800,116.361 296.800 C 116.559 296.800,116.922 296.305,117.166 295.700 C 117.411 295.095,118.325 293.430,119.198 292.000 C 121.275 288.596,120.773 287.759,117.631 289.384 C 117.010 289.705,116.389 289.855,116.251 289.717 C 115.868 289.335,115.952 286.877,116.356 286.627 C 116.551 286.506,116.834 285.917,116.985 285.318 C 117.135 284.718,117.573 283.502,117.958 282.614 C 118.343 281.726,118.979 280.190,119.372 279.200 C 120.352 276.728,121.610 273.650,122.259 272.140 C 122.556 271.446,122.800 270.754,122.800 270.600 C 122.800 270.446,123.059 269.754,123.375 269.060 C 123.691 268.367,124.423 266.630,125.001 265.200 C 125.579 263.770,126.564 261.520,127.190 260.200 C 127.817 258.880,128.538 257.128,128.794 256.306 C 129.049 255.484,129.425 254.708,129.629 254.582 C 129.833 254.456,130.000 254.076,130.000 253.737 C 130.000 253.398,130.261 252.554,130.581 251.860 C 130.900 251.167,131.987 248.553,132.995 246.052 C 134.655 241.938,135.882 240.082,137.000 239.996 C 137.220 239.978,138.840 239.085,140.600 238.010 C 145.301 235.140,145.306 235.141,152.317 240.483 " stroke="none" fill="#141414" fill-rule="evenodd"></path></g></svg>